<svg version="1.1" xmlns="http://www.w3.org/2000/svg" width="294px" height="294px" viewBox="0 0 294 294"  preserveAspectRatio="xMinYMin meet"><rect width="100%" height="100%" fill="white" cx="0" cy="0"/><path d="M0,0l6,0 0,6 -6,0 0,-6z M6,0l6,0 0,6 -6,0 0,-6z M12,0l6,0 0,6 -6,0 0,-6z M18,0l6,0 0,6 -6,0 0,-6z M24,0l6,0 0,6 -6,0 0,-6z M30,0l6,0 0,6 -6,0 0,-6z M36,0l6,0 0,6 -6,0 0,-6z M48,0l6,0 0,6 -6,0 0,-6z M54,0l6,0 0,6 -6,0 0,-6z M60,0l6,0 0,6 -6,0 0,-6z M72,0l6,0 0,6 -6,0 0,-6z M90,0l6,0 0,6 -6,0 0,-6z M96,0l6,0 0,6 -6,0 0,-6z M120,0l6,0 0,6 -6,0 0,-6z M126,0l6,0 0,6 -6,0 0,-6z M144,0l6,0 0,6 -6,0 0,-6z M150,0l6,0 0,6 -6,0 0,-6z M156,0l6,0 0,6 -6,0 0,-6z M162,0l6,0 0,6 -6,0 0,-6z M168,0l6,0 0,6 -6,0 0,-6z M180,0l6,0 0,6 -6,0 0,-6z M186,0l6,0 0,6 -6,0 0,-6z M192,0l6,0 0,6 -6,0 0,-6z M210,0l6,0 0,6 -6,0 0,-6z M216,0l6,0 0,6 -6,0 0,-6z M222,0l6,0 0,6 -6,0 0,-6z M240,0l6,0 0,6 -6,0 0,-6z M252,0l6,0 0,6 -6,0 0,-6z M258,0l6,0 0,6 -6,0 0,-6z M264,0l6,0 0,6 -6,0 0,-6z M270,0l6,0 0,6 -6,0 0,-6z M276,0l6,0 0,6 -6,0 0,-6z M282,0l6,0 0,6 -6,0 0,-6z M288,0l6,0 0,6 -6,0 0,-6z M0,6l6,0 0,6 -6,0 0,-6z M36,6l6,0 0,6 -6,0 0,-6z M48,6l6,0 0,6 -6,0 0,-6z M54,6l6,0 0,6 -6,0 0,-6z M60,6l6,0 0,6 -6,0 0,-6z M66,6l6,0 0,6 -6,0 0,-6z M72,6l6,0 0,6 -6,0 0,-6z M78,6l6,0 0,6 -6,0 0,-6z M84,6l6,0 0,6 -6,0 0,-6z M102,6l6,0 0,6 -6,0 0,-6z M126,6l6,0 0,6 -6,0 0,-6z M132,6l6,0 0,6 -6,0 0,-6z M156,6l6,0 0,6 -6,0 0,-6z M162,6l6,0 0,6 -6,0 0,-6z M168,6l6,0 0,6 -6,0 0,-6z M180,6l6,0 0,6 -6,0 0,-6z M192,6l6,0 0,6 -6,0 0,-6z M198,6l6,0 0,6 -6,0 0,-6z M204,6l6,0 0,6 -6,0 0,-6z M222,6l6,0 0,6 -6,0 0,-6z M228,6l6,0 0,6 -6,0 0,-6z M234,6l6,0 0,6 -6,0 0,-6z M240,6l6,0 0,6 -6,0 0,-6z M252,6l6,0 0,6 -6,0 0,-6z M288,6l6,0 0,6 -6,0 0,-6z M0,12l6,0 0,6 -6,0 0,-6z M12,12l6,0 0,6 -6,0 0,-6z M18,12l6,0 0,6 -6,0 0,-6z M24,12l6,0 0,6 -6,0 0,-6z M36,12l6,0 0,6 -6,0 0,-6z M54,12l6,0 0,6 -6,0 0,-6z M72,12l6,0 0,6 -6,0 0,-6z M84,12l6,0 0,6 -6,0 0,-6z M90,12l6,0 0,6 -6,0 0,-6z M96,12l6,0 0,6 -6,0 0,-6z M108,12l6,0 0,6 -6,0 0,-6z M114,12l6,0 0,6 -6,0 0,-6z M120,12l6,0 0,6 -6,0 0,-6z M126,12l6,0 0,6 -6,0 0,-6z M156,12l6,0 0,6 -6,0 0,-6z M162,12l6,0 0,6 -6,0 0,-6z M174,12l6,0 0,6 -6,0 0,-6z M180,12l6,0 0,6 -6,0 0,-6z M192,12l6,0 0,6 -6,0 0,-6z M204,12l6,0 0,6 -6,0 0,-6z M210,12l6,0 0,6 -6,0 0,-6z M222,12l6,0 0,6 -6,0 0,-6z M234,12l6,0 0,6 -6,0 0,-6z M240,12l6,0 0,6 -6,0 0,-6z M252,12l6,0 0,6 -6,0 0,-6z M264,12l6,0 0,6 -6,0 0,-6z M270,12l6,0 0,6 -6,0 0,-6z M276,12l6,0 0,6 -6,0 0,-6z M288,12l6,0 0,6 -6,0 0,-6z M0,18l6,0 0,6 -6,0 0,-6z M12,18l6,0 0,6 -6,0 0,-6z M18,18l6,0 0,6 -6,0 0,-6z M24,18l6,0 0,6 -6,0 0,-6z M36,18l6,0 0,6 -6,0 0,-6z M48,18l6,0 0,6 -6,0 0,-6z M54,18l6,0 0,6 -6,0 0,-6z M60,18l6,0 0,6 -6,0 0,-6z M96,18l6,0 0,6 -6,0 0,-6z M102,18l6,0 0,6 -6,0 0,-6z M132,18l6,0 0,6 -6,0 0,-6z M138,18l6,0 0,6 -6,0 0,-6z M150,18l6,0 0,6 -6,0 0,-6z M174,18l6,0 0,6 -6,0 0,-6z M180,18l6,0 0,6 -6,0 0,-6z M186,18l6,0 0,6 -6,0 0,-6z M210,18l6,0 0,6 -6,0 0,-6z M216,18l6,0 0,6 -6,0 0,-6z M222,18l6,0 0,6 -6,0 0,-6z M234,18l6,0 0,6 -6,0 0,-6z M252,18l6,0 0,6 -6,0 0,-6z M264,18l6,0 0,6 -6,0 0,-6z M270,18l6,0 0,6 -6,0 0,-6z M276,18l6,0 0,6 -6,0 0,-6z M288,18l6,0 0,6 -6,0 0,-6z M0,24l6,0 0,6 -6,0 0,-6z M12,24l6,0 0,6 -6,0 0,-6z M18,24l6,0 0,6 -6,0 0,-6z M24,24l6,0 0,6 -6,0 0,-6z M36,24l6,0 0,6 -6,0 0,-6z M72,24l6,0 0,6 -6,0 0,-6z M90,24l6,0 0,6 -6,0 0,-6z M96,24l6,0 0,6 -6,0 0,-6z M114,24l6,0 0,6 -6,0 0,-6z M132,24l6,0 0,6 -6,0 0,-6z M138,24l6,0 0,6 -6,0 0,-6z M144,24l6,0 0,6 -6,0 0,-6z M150,24l6,0 0,6 -6,0 0,-6z M156,24l6,0 0,6 -6,0 0,-6z M162,24l6,0 0,6 -6,0 0,-6z M186,24l6,0 0,6 -6,0 0,-6z M198,24l6,0 0,6 -6,0 0,-6z M210,24l6,0 0,6 -6,0 0,-6z M222,24l6,0 0,6 -6,0 0,-6z M252,24l6,0 0,6 -6,0 0,-6z M264,24l6,0 0,6 -6,0 0,-6z M270,24l6,0 0,6 -6,0 0,-6z M276,24l6,0 0,6 -6,0 0,-6z M288,24l6,0 0,6 -6,0 0,-6z M0,30l6,0 0,6 -6,0 0,-6z M36,30l6,0 0,6 -6,0 0,-6z M54,30l6,0 0,6 -6,0 0,-6z M78,30l6,0 0,6 -6,0 0,-6z M108,30l6,0 0,6 -6,0 0,-6z M114,30l6,0 0,6 -6,0 0,-6z M120,30l6,0 0,6 -6,0 0,-6z M126,30l6,0 0,6 -6,0 0,-6z M132,30l6,0 0,6 -6,0 0,-6z M156,30l6,0 0,6 -6,0 0,-6z M162,30l6,0 0,6 -6,0 0,-6z M168,30l6,0 0,6 -6,0 0,-6z M174,30l6,0 0,6 -6,0 0,-6z M180,30l6,0 0,6 -6,0 0,-6z M186,30l6,0 0,6 -6,0 0,-6z M198,30l6,0 0,6 -6,0 0,-6z M228,30l6,0 0,6 -6,0 0,-6z M252,30l6,0 0,6 -6,0 0,-6z M288,30l6,0 0,6 -6,0 0,-6z M0,36l6,0 0,6 -6,0 0,-6z M6,36l6,0 0,6 -6,0 0,-6z M12,36l6,0 0,6 -6,0 0,-6z M18,36l6,0 0,6 -6,0 0,-6z M24,36l6,0 0,6 -6,0 0,-6z M30,36l6,0 0,6 -6,0 0,-6z M36,36l6,0 0,6 -6,0 0,-6z M48,36l6,0 0,6 -6,0 0,-6z M60,36l6,0 0,6 -6,0 0,-6z M72,36l6,0 0,6 -6,0 0,-6z M84,36l6,0 0,6 -6,0 0,-6z M96,36l6,0 0,6 -6,0 0,-6z M108,36l6,0 0,6 -6,0 0,-6z M120,36l6,0 0,6 -6,0 0,-6z M132,36l6,0 0,6 -6,0 0,-6z M144,36l6,0 0,6 -6,0 0,-6z M156,36l6,0 0,6 -6,0 0,-6z M168,36l6,0 0,6 -6,0 0,-6z M180,36l6,0 0,6 -6,0 0,-6z M192,36l6,0 0,6 -6,0 0,-6z M204,36l6,0 0,6 -6,0 0,-6z M216,36l6,0 0,6 -6,0 0,-6z M228,36l6,0 0,6 -6,0 0,-6z M240,36l6,0 0,6 -6,0 0,-6z M252,36l6,0 0,6 -6,0 0,-6z M258,36l6,0 0,6 -6,0 0,-6z M264,36l6,0 0,6 -6,0 0,-6z M270,36l6,0 0,6 -6,0 0,-6z M276,36l6,0 0,6 -6,0 0,-6z M282,36l6,0 0,6 -6,0 0,-6z M288,36l6,0 0,6 -6,0 0,-6z M48,42l6,0 0,6 -6,0 0,-6z M78,42l6,0 0,6 -6,0 0,-6z M96,42l6,0 0,6 -6,0 0,-6z M108,42l6,0 0,6 -6,0 0,-6z M114,42l6,0 0,6 -6,0 0,-6z M126,42l6,0 0,6 -6,0 0,-6z M132,42l6,0 0,6 -6,0 0,-6z M156,42l6,0 0,6 -6,0 0,-6z M168,42l6,0 0,6 -6,0 0,-6z M180,42l6,0 0,6 -6,0 0,-6z M216,42l6,0 0,6 -6,0 0,-6z M222,42l6,0 0,6 -6,0 0,-6z M228,42l6,0 0,6 -6,0 0,-6z M234,42l6,0 0,6 -6,0 0,-6z M240,42l6,0 0,6 -6,0 0,-6z M0,48l6,0 0,6 -6,0 0,-6z M12,48l6,0 0,6 -6,0 0,-6z M18,48l6,0 0,6 -6,0 0,-6z M30,48l6,0 0,6 -6,0 0,-6z M36,48l6,0 0,6 -6,0 0,-6z M42,48l6,0 0,6 -6,0 0,-6z M90,48l6,0 0,6 -6,0 0,-6z M96,48l6,0 0,6 -6,0 0,-6z M102,48l6,0 0,6 -6,0 0,-6z M114,48l6,0 0,6 -6,0 0,-6z M120,48l6,0 0,6 -6,0 0,-6z M126,48l6,0 0,6 -6,0 0,-6z M132,48l6,0 0,6 -6,0 0,-6z M138,48l6,0 0,6 -6,0 0,-6z M144,48l6,0 0,6 -6,0 0,-6z M150,48l6,0 0,6 -6,0 0,-6z M156,48l6,0 0,6 -6,0 0,-6z M168,48l6,0 0,6 -6,0 0,-6z M174,48l6,0 0,6 -6,0 0,-6z M180,48l6,0 0,6 -6,0 0,-6z M204,48l6,0 0,6 -6,0 0,-6z M210,48l6,0 0,6 -6,0 0,-6z M234,48l6,0 0,6 -6,0 0,-6z M252,48l6,0 0,6 -6,0 0,-6z M270,48l6,0 0,6 -6,0 0,-6z M282,48l6,0 0,6 -6,0 0,-6z M288,48l6,0 0,6 -6,0 0,-6z M0,54l6,0 0,6 -6,0 0,-6z M6,54l6,0 0,6 -6,0 0,-6z M12,54l6,0 0,6 -6,0 0,-6z M18,54l6,0 0,6 -6,0 0,-6z M30,54l6,0 0,6 -6,0 0,-6z M48,54l6,0 0,6 -6,0 0,-6z M54,54l6,0 0,6 -6,0 0,-6z M90,54l6,0 0,6 -6,0 0,-6z M96,54l6,0 0,6 -6,0 0,-6z M132,54l6,0 0,6 -6,0 0,-6z M150,54l6,0 0,6 -6,0 0,-6z M174,54l6,0 0,6 -6,0 0,-6z M180,54l6,0 0,6 -6,0 0,-6z M192,54l6,0 0,6 -6,0 0,-6z M210,54l6,0 0,6 -6,0 0,-6z M216,54l6,0 0,6 -6,0 0,-6z M222,54l6,0 0,6 -6,0 0,-6z M246,54l6,0 0,6 -6,0 0,-6z M252,54l6,0 0,6 -6,0 0,-6z M276,54l6,0 0,6 -6,0 0,-6z M0,60l6,0 0,6 -6,0 0,-6z M6,60l6,0 0,6 -6,0 0,-6z M12,60l6,0 0,6 -6,0 0,-6z M30,60l6,0 0,6 -6,0 0,-6z M36,60l6,0 0,6 -6,0 0,-6z M42,60l6,0 0,6 -6,0 0,-6z M54,60l6,0 0,6 -6,0 0,-6z M60,60l6,0 0,6 -6,0 0,-6z M78,60l6,0 0,6 -6,0 0,-6z M84,60l6,0 0,6 -6,0 0,-6z M90,60l6,0 0,6 -6,0 0,-6z M102,60l6,0 0,6 -6,0 0,-6z M108,60l6,0 0,6 -6,0 0,-6z M114,60l6,0 0,6 -6,0 0,-6z M120,60l6,0 0,6 -6,0 0,-6z M126,60l6,0 0,6 -6,0 0,-6z M144,60l6,0 0,6 -6,0 0,-6z M150,60l6,0 0,6 -6,0 0,-6z M162,60l6,0 0,6 -6,0 0,-6z M180,60l6,0 0,6 -6,0 0,-6z M186,60l6,0 0,6 -6,0 0,-6z M204,60l6,0 0,6 -6,0 0,-6z M216,60l6,0 0,6 -6,0 0,-6z M222,60l6,0 0,6 -6,0 0,-6z M246,60l6,0 0,6 -6,0 0,-6z M252,60l6,0 0,6 -6,0 0,-6z M258,60l6,0 0,6 -6,0 0,-6z M264,60l6,0 0,6 -6,0 0,-6z M270,60l6,0 0,6 -6,0 0,-6z M6,66l6,0 0,6 -6,0 0,-6z M18,66l6,0 0,6 -6,0 0,-6z M24,66l6,0 0,6 -6,0 0,-6z M42,66l6,0 0,6 -6,0 0,-6z M66,66l6,0 0,6 -6,0 0,-6z M78,66l6,0 0,6 -6,0 0,-6z M84,66l6,0 0,6 -6,0 0,-6z M90,66l6,0 0,6 -6,0 0,-6z M108,66l6,0 0,6 -6,0 0,-6z M126,66l6,0 0,6 -6,0 0,-6z M132,66l6,0 0,6 -6,0 0,-6z M144,66l6,0 0,6 -6,0 0,-6z M156,66l6,0 0,6 -6,0 0,-6z M174,66l6,0 0,6 -6,0 0,-6z M186,66l6,0 0,6 -6,0 0,-6z M192,66l6,0 0,6 -6,0 0,-6z M216,66l6,0 0,6 -6,0 0,-6z M234,66l6,0 0,6 -6,0 0,-6z M240,66l6,0 0,6 -6,0 0,-6z M246,66l6,0 0,6 -6,0 0,-6z M270,66l6,0 0,6 -6,0 0,-6z M276,66l6,0 0,6 -6,0 0,-6z M282,66l6,0 0,6 -6,0 0,-6z M288,66l6,0 0,6 -6,0 0,-6z M24,72l6,0 0,6 -6,0 0,-6z M36,72l6,0 0,6 -6,0 0,-6z M42,72l6,0 0,6 -6,0 0,-6z M54,72l6,0 0,6 -6,0 0,-6z M84,72l6,0 0,6 -6,0 0,-6z M90,72l6,0 0,6 -6,0 0,-6z M102,72l6,0 0,6 -6,0 0,-6z M108,72l6,0 0,6 -6,0 0,-6z M114,72l6,0 0,6 -6,0 0,-6z M132,72l6,0 0,6 -6,0 0,-6z M138,72l6,0 0,6 -6,0 0,-6z M144,72l6,0 0,6 -6,0 0,-6z M156,72l6,0 0,6 -6,0 0,-6z M162,72l6,0 0,6 -6,0 0,-6z M174,72l6,0 0,6 -6,0 0,-6z M180,72l6,0 0,6 -6,0 0,-6z M186,72l6,0 0,6 -6,0 0,-6z M198,72l6,0 0,6 -6,0 0,-6z M210,72l6,0 0,6 -6,0 0,-6z M216,72l6,0 0,6 -6,0 0,-6z M222,72l6,0 0,6 -6,0 0,-6z M234,72l6,0 0,6 -6,0 0,-6z M252,72l6,0 0,6 -6,0 0,-6z M258,72l6,0 0,6 -6,0 0,-6z M270,72l6,0 0,6 -6,0 0,-6z M288,72l6,0 0,6 -6,0 0,-6z M18,78l6,0 0,6 -6,0 0,-6z M48,78l6,0 0,6 -6,0 0,-6z M54,78l6,0 0,6 -6,0 0,-6z M66,78l6,0 0,6 -6,0 0,-6z M84,78l6,0 0,6 -6,0 0,-6z M96,78l6,0 0,6 -6,0 0,-6z M102,78l6,0 0,6 -6,0 0,-6z M108,78l6,0 0,6 -6,0 0,-6z M120,78l6,0 0,6 -6,0 0,-6z M144,78l6,0 0,6 -6,0 0,-6z M150,78l6,0 0,6 -6,0 0,-6z M156,78l6,0 0,6 -6,0 0,-6z M162,78l6,0 0,6 -6,0 0,-6z M186,78l6,0 0,6 -6,0 0,-6z M198,78l6,0 0,6 -6,0 0,-6z M216,78l6,0 0,6 -6,0 0,-6z M222,78l6,0 0,6 -6,0 0,-6z M228,78l6,0 0,6 -6,0 0,-6z M234,78l6,0 0,6 -6,0 0,-6z M258,78l6,0 0,6 -6,0 0,-6z M270,78l6,0 0,6 -6,0 0,-6z M288,78l6,0 0,6 -6,0 0,-6z M6,84l6,0 0,6 -6,0 0,-6z M12,84l6,0 0,6 -6,0 0,-6z M18,84l6,0 0,6 -6,0 0,-6z M30,84l6,0 0,6 -6,0 0,-6z M36,84l6,0 0,6 -6,0 0,-6z M78,84l6,0 0,6 -6,0 0,-6z M84,84l6,0 0,6 -6,0 0,-6z M90,84l6,0 0,6 -6,0 0,-6z M102,84l6,0 0,6 -6,0 0,-6z M108,84l6,0 0,6 -6,0 0,-6z M126,84l6,0 0,6 -6,0 0,-6z M132,84l6,0 0,6 -6,0 0,-6z M138,84l6,0 0,6 -6,0 0,-6z M144,84l6,0 0,6 -6,0 0,-6z M150,84l6,0 0,6 -6,0 0,-6z M156,84l6,0 0,6 -6,0 0,-6z M162,84l6,0 0,6 -6,0 0,-6z M168,84l6,0 0,6 -6,0 0,-6z M180,84l6,0 0,6 -6,0 0,-6z M192,84l6,0 0,6 -6,0 0,-6z M198,84l6,0 0,6 -6,0 0,-6z M204,84l6,0 0,6 -6,0 0,-6z M210,84l6,0 0,6 -6,0 0,-6z M216,84l6,0 0,6 -6,0 0,-6z M222,84l6,0 0,6 -6,0 0,-6z M240,84l6,0 0,6 -6,0 0,-6z M252,84l6,0 0,6 -6,0 0,-6z M270,84l6,0 0,6 -6,0 0,-6z M276,84l6,0 0,6 -6,0 0,-6z M282,84l6,0 0,6 -6,0 0,-6z M0,90l6,0 0,6 -6,0 0,-6z M12,90l6,0 0,6 -6,0 0,-6z M48,90l6,0 0,6 -6,0 0,-6z M78,90l6,0 0,6 -6,0 0,-6z M96,90l6,0 0,6 -6,0 0,-6z M102,90l6,0 0,6 -6,0 0,-6z M108,90l6,0 0,6 -6,0 0,-6z M126,90l6,0 0,6 -6,0 0,-6z M138,90l6,0 0,6 -6,0 0,-6z M150,90l6,0 0,6 -6,0 0,-6z M180,90l6,0 0,6 -6,0 0,-6z M186,90l6,0 0,6 -6,0 0,-6z M192,90l6,0 0,6 -6,0 0,-6z M198,90l6,0 0,6 -6,0 0,-6z M234,90l6,0 0,6 -6,0 0,-6z M246,90l6,0 0,6 -6,0 0,-6z M264,90l6,0 0,6 -6,0 0,-6z M282,90l6,0 0,6 -6,0 0,-6z M24,96l6,0 0,6 -6,0 0,-6z M36,96l6,0 0,6 -6,0 0,-6z M42,96l6,0 0,6 -6,0 0,-6z M48,96l6,0 0,6 -6,0 0,-6z M54,96l6,0 0,6 -6,0 0,-6z M60,96l6,0 0,6 -6,0 0,-6z M66,96l6,0 0,6 -6,0 0,-6z M72,96l6,0 0,6 -6,0 0,-6z M78,96l6,0 0,6 -6,0 0,-6z M84,96l6,0 0,6 -6,0 0,-6z M90,96l6,0 0,6 -6,0 0,-6z M96,96l6,0 0,6 -6,0 0,-6z M108,96l6,0 0,6 -6,0 0,-6z M126,96l6,0 0,6 -6,0 0,-6z M138,96l6,0 0,6 -6,0 0,-6z M156,96l6,0 0,6 -6,0 0,-6z M174,96l6,0 0,6 -6,0 0,-6z M192,96l6,0 0,6 -6,0 0,-6z M204,96l6,0 0,6 -6,0 0,-6z M222,96l6,0 0,6 -6,0 0,-6z M234,96l6,0 0,6 -6,0 0,-6z M240,96l6,0 0,6 -6,0 0,-6z M252,96l6,0 0,6 -6,0 0,-6z M258,96l6,0 0,6 -6,0 0,-6z M264,96l6,0 0,6 -6,0 0,-6z M270,96l6,0 0,6 -6,0 0,-6z M276,96l6,0 0,6 -6,0 0,-6z M288,96l6,0 0,6 -6,0 0,-6z M0,102l6,0 0,6 -6,0 0,-6z M54,102l6,0 0,6 -6,0 0,-6z M60,102l6,0 0,6 -6,0 0,-6z M66,102l6,0 0,6 -6,0 0,-6z M90,102l6,0 0,6 -6,0 0,-6z M162,102l6,0 0,6 -6,0 0,-6z M168,102l6,0 0,6 -6,0 0,-6z M198,102l6,0 0,6 -6,0 0,-6z M204,102l6,0 0,6 -6,0 0,-6z M222,102l6,0 0,6 -6,0 0,-6z M234,102l6,0 0,6 -6,0 0,-6z M240,102l6,0 0,6 -6,0 0,-6z M246,102l6,0 0,6 -6,0 0,-6z M258,102l6,0 0,6 -6,0 0,-6z M264,102l6,0 0,6 -6,0 0,-6z M270,102l6,0 0,6 -6,0 0,-6z M276,102l6,0 0,6 -6,0 0,-6z M288,102l6,0 0,6 -6,0 0,-6z M0,108l6,0 0,6 -6,0 0,-6z M24,108l6,0 0,6 -6,0 0,-6z M30,108l6,0 0,6 -6,0 0,-6z M36,108l6,0 0,6 -6,0 0,-6z M42,108l6,0 0,6 -6,0 0,-6z M54,108l6,0 0,6 -6,0 0,-6z M78,108l6,0 0,6 -6,0 0,-6z M96,108l6,0 0,6 -6,0 0,-6z M108,108l6,0 0,6 -6,0 0,-6z M126,108l6,0 0,6 -6,0 0,-6z M132,108l6,0 0,6 -6,0 0,-6z M138,108l6,0 0,6 -6,0 0,-6z M144,108l6,0 0,6 -6,0 0,-6z M156,108l6,0 0,6 -6,0 0,-6z M162,108l6,0 0,6 -6,0 0,-6z M180,108l6,0 0,6 -6,0 0,-6z M186,108l6,0 0,6 -6,0 0,-6z M192,108l6,0 0,6 -6,0 0,-6z M198,108l6,0 0,6 -6,0 0,-6z M204,108l6,0 0,6 -6,0 0,-6z M216,108l6,0 0,6 -6,0 0,-6z M222,108l6,0 0,6 -6,0 0,-6z M228,108l6,0 0,6 -6,0 0,-6z M246,108l6,0 0,6 -6,0 0,-6z M270,108l6,0 0,6 -6,0 0,-6z M282,108l6,0 0,6 -6,0 0,-6z M288,108l6,0 0,6 -6,0 0,-6z M0,114l6,0 0,6 -6,0 0,-6z M6,114l6,0 0,6 -6,0 0,-6z M18,114l6,0 0,6 -6,0 0,-6z M66,114l6,0 0,6 -6,0 0,-6z M72,114l6,0 0,6 -6,0 0,-6z M78,114l6,0 0,6 -6,0 0,-6z M84,114l6,0 0,6 -6,0 0,-6z M90,114l6,0 0,6 -6,0 0,-6z M114,114l6,0 0,6 -6,0 0,-6z M120,114l6,0 0,6 -6,0 0,-6z M126,114l6,0 0,6 -6,0 0,-6z M144,114l6,0 0,6 -6,0 0,-6z M156,114l6,0 0,6 -6,0 0,-6z M162,114l6,0 0,6 -6,0 0,-6z M168,114l6,0 0,6 -6,0 0,-6z M174,114l6,0 0,6 -6,0 0,-6z M186,114l6,0 0,6 -6,0 0,-6z M198,114l6,0 0,6 -6,0 0,-6z M222,114l6,0 0,6 -6,0 0,-6z M228,114l6,0 0,6 -6,0 0,-6z M246,114l6,0 0,6 -6,0 0,-6z M252,114l6,0 0,6 -6,0 0,-6z M258,114l6,0 0,6 -6,0 0,-6z M270,114l6,0 0,6 -6,0 0,-6z M282,114l6,0 0,6 -6,0 0,-6z M0,120l6,0 0,6 -6,0 0,-6z M6,120l6,0 0,6 -6,0 0,-6z M12,120l6,0 0,6 -6,0 0,-6z M36,120l6,0 0,6 -6,0 0,-6z M42,120l6,0 0,6 -6,0 0,-6z M48,120l6,0 0,6 -6,0 0,-6z M54,120l6,0 0,6 -6,0 0,-6z M72,120l6,0 0,6 -6,0 0,-6z M84,120l6,0 0,6 -6,0 0,-6z M90,120l6,0 0,6 -6,0 0,-6z M96,120l6,0 0,6 -6,0 0,-6z M114,120l6,0 0,6 -6,0 0,-6z M120,120l6,0 0,6 -6,0 0,-6z M126,120l6,0 0,6 -6,0 0,-6z M138,120l6,0 0,6 -6,0 0,-6z M162,120l6,0 0,6 -6,0 0,-6z M168,120l6,0 0,6 -6,0 0,-6z M198,120l6,0 0,6 -6,0 0,-6z M204,120l6,0 0,6 -6,0 0,-6z M210,120l6,0 0,6 -6,0 0,-6z M222,120l6,0 0,6 -6,0 0,-6z M246,120l6,0 0,6 -6,0 0,-6z M270,120l6,0 0,6 -6,0 0,-6z M282,120l6,0 0,6 -6,0 0,-6z M24,126l6,0 0,6 -6,0 0,-6z M30,126l6,0 0,6 -6,0 0,-6z M114,126l6,0 0,6 -6,0 0,-6z M126,126l6,0 0,6 -6,0 0,-6z M138,126l6,0 0,6 -6,0 0,-6z M174,126l6,0 0,6 -6,0 0,-6z M180,126l6,0 0,6 -6,0 0,-6z M186,126l6,0 0,6 -6,0 0,-6z M192,126l6,0 0,6 -6,0 0,-6z M210,126l6,0 0,6 -6,0 0,-6z M222,126l6,0 0,6 -6,0 0,-6z M234,126l6,0 0,6 -6,0 0,-6z M252,126l6,0 0,6 -6,0 0,-6z M258,126l6,0 0,6 -6,0 0,-6z M270,126l6,0 0,6 -6,0 0,-6z M282,126l6,0 0,6 -6,0 0,-6z M0,132l6,0 0,6 -6,0 0,-6z M6,132l6,0 0,6 -6,0 0,-6z M12,132l6,0 0,6 -6,0 0,-6z M18,132l6,0 0,6 -6,0 0,-6z M24,132l6,0 0,6 -6,0 0,-6z M30,132l6,0 0,6 -6,0 0,-6z M36,132l6,0 0,6 -6,0 0,-6z M42,132l6,0 0,6 -6,0 0,-6z M48,132l6,0 0,6 -6,0 0,-6z M66,132l6,0 0,6 -6,0 0,-6z M78,132l6,0 0,6 -6,0 0,-6z M96,132l6,0 0,6 -6,0 0,-6z M102,132l6,0 0,6 -6,0 0,-6z M108,132l6,0 0,6 -6,0 0,-6z M126,132l6,0 0,6 -6,0 0,-6z M132,132l6,0 0,6 -6,0 0,-6z M138,132l6,0 0,6 -6,0 0,-6z M144,132l6,0 0,6 -6,0 0,-6z M150,132l6,0 0,6 -6,0 0,-6z M156,132l6,0 0,6 -6,0 0,-6z M174,132l6,0 0,6 -6,0 0,-6z M180,132l6,0 0,6 -6,0 0,-6z M192,132l6,0 0,6 -6,0 0,-6z M198,132l6,0 0,6 -6,0 0,-6z M204,132l6,0 0,6 -6,0 0,-6z M210,132l6,0 0,6 -6,0 0,-6z M234,132l6,0 0,6 -6,0 0,-6z M240,132l6,0 0,6 -6,0 0,-6z M246,132l6,0 0,6 -6,0 0,-6z M252,132l6,0 0,6 -6,0 0,-6z M258,132l6,0 0,6 -6,0 0,-6z M264,132l6,0 0,6 -6,0 0,-6z M270,132l6,0 0,6 -6,0 0,-6z M282,132l6,0 0,6 -6,0 0,-6z M12,138l6,0 0,6 -6,0 0,-6z M24,138l6,0 0,6 -6,0 0,-6z M48,138l6,0 0,6 -6,0 0,-6z M54,138l6,0 0,6 -6,0 0,-6z M60,138l6,0 0,6 -6,0 0,-6z M66,138l6,0 0,6 -6,0 0,-6z M72,138l6,0 0,6 -6,0 0,-6z M114,138l6,0 0,6 -6,0 0,-6z M126,138l6,0 0,6 -6,0 0,-6z M132,138l6,0 0,6 -6,0 0,-6z M156,138l6,0 0,6 -6,0 0,-6z M186,138l6,0 0,6 -6,0 0,-6z M192,138l6,0 0,6 -6,0 0,-6z M198,138l6,0 0,6 -6,0 0,-6z M216,138l6,0 0,6 -6,0 0,-6z M234,138l6,0 0,6 -6,0 0,-6z M240,138l6,0 0,6 -6,0 0,-6z M264,138l6,0 0,6 -6,0 0,-6z M270,138l6,0 0,6 -6,0 0,-6z M276,138l6,0 0,6 -6,0 0,-6z M12,144l6,0 0,6 -6,0 0,-6z M18,144l6,0 0,6 -6,0 0,-6z M24,144l6,0 0,6 -6,0 0,-6z M36,144l6,0 0,6 -6,0 0,-6z M48,144l6,0 0,6 -6,0 0,-6z M54,144l6,0 0,6 -6,0 0,-6z M72,144l6,0 0,6 -6,0 0,-6z M90,144l6,0 0,6 -6,0 0,-6z M102,144l6,0 0,6 -6,0 0,-6z M108,144l6,0 0,6 -6,0 0,-6z M114,144l6,0 0,6 -6,0 0,-6z M120,144l6,0 0,6 -6,0 0,-6z M126,144l6,0 0,6 -6,0 0,-6z M132,144l6,0 0,6 -6,0 0,-6z M144,144l6,0 0,6 -6,0 0,-6z M156,144l6,0 0,6 -6,0 0,-6z M198,144l6,0 0,6 -6,0 0,-6z M210,144l6,0 0,6 -6,0 0,-6z M216,144l6,0 0,6 -6,0 0,-6z M240,144l6,0 0,6 -6,0 0,-6z M252,144l6,0 0,6 -6,0 0,-6z M264,144l6,0 0,6 -6,0 0,-6z M270,144l6,0 0,6 -6,0 0,-6z M276,144l6,0 0,6 -6,0 0,-6z M282,144l6,0 0,6 -6,0 0,-6z M288,144l6,0 0,6 -6,0 0,-6z M6,150l6,0 0,6 -6,0 0,-6z M12,150l6,0 0,6 -6,0 0,-6z M24,150l6,0 0,6 -6,0 0,-6z M48,150l6,0 0,6 -6,0 0,-6z M54,150l6,0 0,6 -6,0 0,-6z M66,150l6,0 0,6 -6,0 0,-6z M78,150l6,0 0,6 -6,0 0,-6z M114,150l6,0 0,6 -6,0 0,-6z M120,150l6,0 0,6 -6,0 0,-6z M126,150l6,0 0,6 -6,0 0,-6z M132,150l6,0 0,6 -6,0 0,-6z M156,150l6,0 0,6 -6,0 0,-6z M168,150l6,0 0,6 -6,0 0,-6z M186,150l6,0 0,6 -6,0 0,-6z M192,150l6,0 0,6 -6,0 0,-6z M198,150l6,0 0,6 -6,0 0,-6z M216,150l6,0 0,6 -6,0 0,-6z M222,150l6,0 0,6 -6,0 0,-6z M228,150l6,0 0,6 -6,0 0,-6z M234,150l6,0 0,6 -6,0 0,-6z M240,150l6,0 0,6 -6,0 0,-6z M264,150l6,0 0,6 -6,0 0,-6z M276,150l6,0 0,6 -6,0 0,-6z M288,150l6,0 0,6 -6,0 0,-6z M12,156l6,0 0,6 -6,0 0,-6z M18,156l6,0 0,6 -6,0 0,-6z M24,156l6,0 0,6 -6,0 0,-6z M30,156l6,0 0,6 -6,0 0,-6z M36,156l6,0 0,6 -6,0 0,-6z M42,156l6,0 0,6 -6,0 0,-6z M48,156l6,0 0,6 -6,0 0,-6z M72,156l6,0 0,6 -6,0 0,-6z M90,156l6,0 0,6 -6,0 0,-6z M108,156l6,0 0,6 -6,0 0,-6z M126,156l6,0 0,6 -6,0 0,-6z M132,156l6,0 0,6 -6,0 0,-6z M138,156l6,0 0,6 -6,0 0,-6z M144,156l6,0 0,6 -6,0 0,-6z M150,156l6,0 0,6 -6,0 0,-6z M156,156l6,0 0,6 -6,0 0,-6z M168,156l6,0 0,6 -6,0 0,-6z M180,156l6,0 0,6 -6,0 0,-6z M210,156l6,0 0,6 -6,0 0,-6z M216,156l6,0 0,6 -6,0 0,-6z M222,156l6,0 0,6 -6,0 0,-6z M228,156l6,0 0,6 -6,0 0,-6z M234,156l6,0 0,6 -6,0 0,-6z M240,156l6,0 0,6 -6,0 0,-6z M246,156l6,0 0,6 -6,0 0,-6z M252,156l6,0 0,6 -6,0 0,-6z M258,156l6,0 0,6 -6,0 0,-6z M264,156l6,0 0,6 -6,0 0,-6z M282,156l6,0 0,6 -6,0 0,-6z M0,162l6,0 0,6 -6,0 0,-6z M18,162l6,0 0,6 -6,0 0,-6z M24,162l6,0 0,6 -6,0 0,-6z M42,162l6,0 0,6 -6,0 0,-6z M54,162l6,0 0,6 -6,0 0,-6z M60,162l6,0 0,6 -6,0 0,-6z M72,162l6,0 0,6 -6,0 0,-6z M78,162l6,0 0,6 -6,0 0,-6z M84,162l6,0 0,6 -6,0 0,-6z M96,162l6,0 0,6 -6,0 0,-6z M102,162l6,0 0,6 -6,0 0,-6z M108,162l6,0 0,6 -6,0 0,-6z M114,162l6,0 0,6 -6,0 0,-6z M126,162l6,0 0,6 -6,0 0,-6z M144,162l6,0 0,6 -6,0 0,-6z M150,162l6,0 0,6 -6,0 0,-6z M162,162l6,0 0,6 -6,0 0,-6z M168,162l6,0 0,6 -6,0 0,-6z M174,162l6,0 0,6 -6,0 0,-6z M180,162l6,0 0,6 -6,0 0,-6z M192,162l6,0 0,6 -6,0 0,-6z M198,162l6,0 0,6 -6,0 0,-6z M228,162l6,0 0,6 -6,0 0,-6z M240,162l6,0 0,6 -6,0 0,-6z M246,162l6,0 0,6 -6,0 0,-6z M258,162l6,0 0,6 -6,0 0,-6z M288,162l6,0 0,6 -6,0 0,-6z M12,168l6,0 0,6 -6,0 0,-6z M18,168l6,0 0,6 -6,0 0,-6z M36,168l6,0 0,6 -6,0 0,-6z M42,168l6,0 0,6 -6,0 0,-6z M48,168l6,0 0,6 -6,0 0,-6z M96,168l6,0 0,6 -6,0 0,-6z M120,168l6,0 0,6 -6,0 0,-6z M150,168l6,0 0,6 -6,0 0,-6z M156,168l6,0 0,6 -6,0 0,-6z M162,168l6,0 0,6 -6,0 0,-6z M186,168l6,0 0,6 -6,0 0,-6z M192,168l6,0 0,6 -6,0 0,-6z M210,168l6,0 0,6 -6,0 0,-6z M228,168l6,0 0,6 -6,0 0,-6z M240,168l6,0 0,6 -6,0 0,-6z M246,168l6,0 0,6 -6,0 0,-6z M252,168l6,0 0,6 -6,0 0,-6z M282,168l6,0 0,6 -6,0 0,-6z M0,174l6,0 0,6 -6,0 0,-6z M18,174l6,0 0,6 -6,0 0,-6z M60,174l6,0 0,6 -6,0 0,-6z M66,174l6,0 0,6 -6,0 0,-6z M90,174l6,0 0,6 -6,0 0,-6z M108,174l6,0 0,6 -6,0 0,-6z M120,174l6,0 0,6 -6,0 0,-6z M132,174l6,0 0,6 -6,0 0,-6z M150,174l6,0 0,6 -6,0 0,-6z M168,174l6,0 0,6 -6,0 0,-6z M174,174l6,0 0,6 -6,0 0,-6z M192,174l6,0 0,6 -6,0 0,-6z M204,174l6,0 0,6 -6,0 0,-6z M240,174l6,0 0,6 -6,0 0,-6z M246,174l6,0 0,6 -6,0 0,-6z M276,174l6,0 0,6 -6,0 0,-6z M288,174l6,0 0,6 -6,0 0,-6z M0,180l6,0 0,6 -6,0 0,-6z M6,180l6,0 0,6 -6,0 0,-6z M36,180l6,0 0,6 -6,0 0,-6z M48,180l6,0 0,6 -6,0 0,-6z M54,180l6,0 0,6 -6,0 0,-6z M60,180l6,0 0,6 -6,0 0,-6z M66,180l6,0 0,6 -6,0 0,-6z M84,180l6,0 0,6 -6,0 0,-6z M90,180l6,0 0,6 -6,0 0,-6z M108,180l6,0 0,6 -6,0 0,-6z M120,180l6,0 0,6 -6,0 0,-6z M132,180l6,0 0,6 -6,0 0,-6z M138,180l6,0 0,6 -6,0 0,-6z M144,180l6,0 0,6 -6,0 0,-6z M150,180l6,0 0,6 -6,0 0,-6z M174,180l6,0 0,6 -6,0 0,-6z M198,180l6,0 0,6 -6,0 0,-6z M204,180l6,0 0,6 -6,0 0,-6z M216,180l6,0 0,6 -6,0 0,-6z M222,180l6,0 0,6 -6,0 0,-6z M240,180l6,0 0,6 -6,0 0,-6z M246,180l6,0 0,6 -6,0 0,-6z M252,180l6,0 0,6 -6,0 0,-6z M264,180l6,0 0,6 -6,0 0,-6z M276,180l6,0 0,6 -6,0 0,-6z M282,180l6,0 0,6 -6,0 0,-6z M288,180l6,0 0,6 -6,0 0,-6z M12,186l6,0 0,6 -6,0 0,-6z M18,186l6,0 0,6 -6,0 0,-6z M42,186l6,0 0,6 -6,0 0,-6z M48,186l6,0 0,6 -6,0 0,-6z M60,186l6,0 0,6 -6,0 0,-6z M84,186l6,0 0,6 -6,0 0,-6z M90,186l6,0 0,6 -6,0 0,-6z M108,186l6,0 0,6 -6,0 0,-6z M114,186l6,0 0,6 -6,0 0,-6z M126,186l6,0 0,6 -6,0 0,-6z M138,186l6,0 0,6 -6,0 0,-6z M180,186l6,0 0,6 -6,0 0,-6z M186,186l6,0 0,6 -6,0 0,-6z M204,186l6,0 0,6 -6,0 0,-6z M216,186l6,0 0,6 -6,0 0,-6z M222,186l6,0 0,6 -6,0 0,-6z M240,186l6,0 0,6 -6,0 0,-6z M246,186l6,0 0,6 -6,0 0,-6z M252,186l6,0 0,6 -6,0 0,-6z M258,186l6,0 0,6 -6,0 0,-6z M264,186l6,0 0,6 -6,0 0,-6z M270,186l6,0 0,6 -6,0 0,-6z M0,192l6,0 0,6 -6,0 0,-6z M18,192l6,0 0,6 -6,0 0,-6z M36,192l6,0 0,6 -6,0 0,-6z M60,192l6,0 0,6 -6,0 0,-6z M72,192l6,0 0,6 -6,0 0,-6z M90,192l6,0 0,6 -6,0 0,-6z M96,192l6,0 0,6 -6,0 0,-6z M108,192l6,0 0,6 -6,0 0,-6z M120,192l6,0 0,6 -6,0 0,-6z M126,192l6,0 0,6 -6,0 0,-6z M144,192l6,0 0,6 -6,0 0,-6z M156,192l6,0 0,6 -6,0 0,-6z M162,192l6,0 0,6 -6,0 0,-6z M180,192l6,0 0,6 -6,0 0,-6z M186,192l6,0 0,6 -6,0 0,-6z M198,192l6,0 0,6 -6,0 0,-6z M204,192l6,0 0,6 -6,0 0,-6z M210,192l6,0 0,6 -6,0 0,-6z M240,192l6,0 0,6 -6,0 0,-6z M252,192l6,0 0,6 -6,0 0,-6z M270,192l6,0 0,6 -6,0 0,-6z M288,192l6,0 0,6 -6,0 0,-6z M18,198l6,0 0,6 -6,0 0,-6z M24,198l6,0 0,6 -6,0 0,-6z M30,198l6,0 0,6 -6,0 0,-6z M42,198l6,0 0,6 -6,0 0,-6z M54,198l6,0 0,6 -6,0 0,-6z M60,198l6,0 0,6 -6,0 0,-6z M72,198l6,0 0,6 -6,0 0,-6z M78,198l6,0 0,6 -6,0 0,-6z M90,198l6,0 0,6 -6,0 0,-6z M96,198l6,0 0,6 -6,0 0,-6z M114,198l6,0 0,6 -6,0 0,-6z M138,198l6,0 0,6 -6,0 0,-6z M144,198l6,0 0,6 -6,0 0,-6z M156,198l6,0 0,6 -6,0 0,-6z M162,198l6,0 0,6 -6,0 0,-6z M168,198l6,0 0,6 -6,0 0,-6z M174,198l6,0 0,6 -6,0 0,-6z M234,198l6,0 0,6 -6,0 0,-6z M240,198l6,0 0,6 -6,0 0,-6z M252,198l6,0 0,6 -6,0 0,-6z M258,198l6,0 0,6 -6,0 0,-6z M270,198l6,0 0,6 -6,0 0,-6z M282,198l6,0 0,6 -6,0 0,-6z M12,204l6,0 0,6 -6,0 0,-6z M18,204l6,0 0,6 -6,0 0,-6z M30,204l6,0 0,6 -6,0 0,-6z M36,204l6,0 0,6 -6,0 0,-6z M42,204l6,0 0,6 -6,0 0,-6z M90,204l6,0 0,6 -6,0 0,-6z M114,204l6,0 0,6 -6,0 0,-6z M120,204l6,0 0,6 -6,0 0,-6z M132,204l6,0 0,6 -6,0 0,-6z M144,204l6,0 0,6 -6,0 0,-6z M150,204l6,0 0,6 -6,0 0,-6z M156,204l6,0 0,6 -6,0 0,-6z M162,204l6,0 0,6 -6,0 0,-6z M168,204l6,0 0,6 -6,0 0,-6z M174,204l6,0 0,6 -6,0 0,-6z M186,204l6,0 0,6 -6,0 0,-6z M192,204l6,0 0,6 -6,0 0,-6z M204,204l6,0 0,6 -6,0 0,-6z M222,204l6,0 0,6 -6,0 0,-6z M246,204l6,0 0,6 -6,0 0,-6z M258,204l6,0 0,6 -6,0 0,-6z M18,210l6,0 0,6 -6,0 0,-6z M30,210l6,0 0,6 -6,0 0,-6z M42,210l6,0 0,6 -6,0 0,-6z M72,210l6,0 0,6 -6,0 0,-6z M96,210l6,0 0,6 -6,0 0,-6z M102,210l6,0 0,6 -6,0 0,-6z M132,210l6,0 0,6 -6,0 0,-6z M150,210l6,0 0,6 -6,0 0,-6z M156,210l6,0 0,6 -6,0 0,-6z M174,210l6,0 0,6 -6,0 0,-6z M180,210l6,0 0,6 -6,0 0,-6z M192,210l6,0 0,6 -6,0 0,-6z M198,210l6,0 0,6 -6,0 0,-6z M204,210l6,0 0,6 -6,0 0,-6z M210,210l6,0 0,6 -6,0 0,-6z M216,210l6,0 0,6 -6,0 0,-6z M228,210l6,0 0,6 -6,0 0,-6z M234,210l6,0 0,6 -6,0 0,-6z M246,210l6,0 0,6 -6,0 0,-6z M252,210l6,0 0,6 -6,0 0,-6z M258,210l6,0 0,6 -6,0 0,-6z M270,210l6,0 0,6 -6,0 0,-6z M276,210l6,0 0,6 -6,0 0,-6z M282,210l6,0 0,6 -6,0 0,-6z M6,216l6,0 0,6 -6,0 0,-6z M12,216l6,0 0,6 -6,0 0,-6z M24,216l6,0 0,6 -6,0 0,-6z M36,216l6,0 0,6 -6,0 0,-6z M48,216l6,0 0,6 -6,0 0,-6z M60,216l6,0 0,6 -6,0 0,-6z M72,216l6,0 0,6 -6,0 0,-6z M78,216l6,0 0,6 -6,0 0,-6z M84,216l6,0 0,6 -6,0 0,-6z M102,216l6,0 0,6 -6,0 0,-6z M108,216l6,0 0,6 -6,0 0,-6z M114,216l6,0 0,6 -6,0 0,-6z M120,216l6,0 0,6 -6,0 0,-6z M126,216l6,0 0,6 -6,0 0,-6z M132,216l6,0 0,6 -6,0 0,-6z M138,216l6,0 0,6 -6,0 0,-6z M150,216l6,0 0,6 -6,0 0,-6z M156,216l6,0 0,6 -6,0 0,-6z M180,216l6,0 0,6 -6,0 0,-6z M186,216l6,0 0,6 -6,0 0,-6z M198,216l6,0 0,6 -6,0 0,-6z M216,216l6,0 0,6 -6,0 0,-6z M222,216l6,0 0,6 -6,0 0,-6z M228,216l6,0 0,6 -6,0 0,-6z M234,216l6,0 0,6 -6,0 0,-6z M240,216l6,0 0,6 -6,0 0,-6z M264,216l6,0 0,6 -6,0 0,-6z M270,216l6,0 0,6 -6,0 0,-6z M276,216l6,0 0,6 -6,0 0,-6z M282,216l6,0 0,6 -6,0 0,-6z M18,222l6,0 0,6 -6,0 0,-6z M24,222l6,0 0,6 -6,0 0,-6z M48,222l6,0 0,6 -6,0 0,-6z M60,222l6,0 0,6 -6,0 0,-6z M72,222l6,0 0,6 -6,0 0,-6z M84,222l6,0 0,6 -6,0 0,-6z M90,222l6,0 0,6 -6,0 0,-6z M96,222l6,0 0,6 -6,0 0,-6z M102,222l6,0 0,6 -6,0 0,-6z M114,222l6,0 0,6 -6,0 0,-6z M120,222l6,0 0,6 -6,0 0,-6z M132,222l6,0 0,6 -6,0 0,-6z M150,222l6,0 0,6 -6,0 0,-6z M162,222l6,0 0,6 -6,0 0,-6z M186,222l6,0 0,6 -6,0 0,-6z M192,222l6,0 0,6 -6,0 0,-6z M198,222l6,0 0,6 -6,0 0,-6z M216,222l6,0 0,6 -6,0 0,-6z M222,222l6,0 0,6 -6,0 0,-6z M228,222l6,0 0,6 -6,0 0,-6z M240,222l6,0 0,6 -6,0 0,-6z M246,222l6,0 0,6 -6,0 0,-6z M258,222l6,0 0,6 -6,0 0,-6z M264,222l6,0 0,6 -6,0 0,-6z M270,222l6,0 0,6 -6,0 0,-6z M276,222l6,0 0,6 -6,0 0,-6z M288,222l6,0 0,6 -6,0 0,-6z M6,228l6,0 0,6 -6,0 0,-6z M30,228l6,0 0,6 -6,0 0,-6z M36,228l6,0 0,6 -6,0 0,-6z M42,228l6,0 0,6 -6,0 0,-6z M48,228l6,0 0,6 -6,0 0,-6z M60,228l6,0 0,6 -6,0 0,-6z M72,228l6,0 0,6 -6,0 0,-6z M78,228l6,0 0,6 -6,0 0,-6z M84,228l6,0 0,6 -6,0 0,-6z M90,228l6,0 0,6 -6,0 0,-6z M96,228l6,0 0,6 -6,0 0,-6z M120,228l6,0 0,6 -6,0 0,-6z M126,228l6,0 0,6 -6,0 0,-6z M138,228l6,0 0,6 -6,0 0,-6z M162,228l6,0 0,6 -6,0 0,-6z M180,228l6,0 0,6 -6,0 0,-6z M186,228l6,0 0,6 -6,0 0,-6z M192,228l6,0 0,6 -6,0 0,-6z M216,228l6,0 0,6 -6,0 0,-6z M228,228l6,0 0,6 -6,0 0,-6z M234,228l6,0 0,6 -6,0 0,-6z M240,228l6,0 0,6 -6,0 0,-6z M258,228l6,0 0,6 -6,0 0,-6z M282,228l6,0 0,6 -6,0 0,-6z M6,234l6,0 0,6 -6,0 0,-6z M12,234l6,0 0,6 -6,0 0,-6z M18,234l6,0 0,6 -6,0 0,-6z M42,234l6,0 0,6 -6,0 0,-6z M54,234l6,0 0,6 -6,0 0,-6z M60,234l6,0 0,6 -6,0 0,-6z M66,234l6,0 0,6 -6,0 0,-6z M84,234l6,0 0,6 -6,0 0,-6z M126,234l6,0 0,6 -6,0 0,-6z M132,234l6,0 0,6 -6,0 0,-6z M138,234l6,0 0,6 -6,0 0,-6z M144,234l6,0 0,6 -6,0 0,-6z M156,234l6,0 0,6 -6,0 0,-6z M168,234l6,0 0,6 -6,0 0,-6z M174,234l6,0 0,6 -6,0 0,-6z M180,234l6,0 0,6 -6,0 0,-6z M192,234l6,0 0,6 -6,0 0,-6z M222,234l6,0 0,6 -6,0 0,-6z M228,234l6,0 0,6 -6,0 0,-6z M258,234l6,0 0,6 -6,0 0,-6z M282,234l6,0 0,6 -6,0 0,-6z M288,234l6,0 0,6 -6,0 0,-6z M0,240l6,0 0,6 -6,0 0,-6z M6,240l6,0 0,6 -6,0 0,-6z M12,240l6,0 0,6 -6,0 0,-6z M36,240l6,0 0,6 -6,0 0,-6z M42,240l6,0 0,6 -6,0 0,-6z M66,240l6,0 0,6 -6,0 0,-6z M72,240l6,0 0,6 -6,0 0,-6z M78,240l6,0 0,6 -6,0 0,-6z M90,240l6,0 0,6 -6,0 0,-6z M102,240l6,0 0,6 -6,0 0,-6z M126,240l6,0 0,6 -6,0 0,-6z M132,240l6,0 0,6 -6,0 0,-6z M138,240l6,0 0,6 -6,0 0,-6z M144,240l6,0 0,6 -6,0 0,-6z M150,240l6,0 0,6 -6,0 0,-6z M156,240l6,0 0,6 -6,0 0,-6z M162,240l6,0 0,6 -6,0 0,-6z M186,240l6,0 0,6 -6,0 0,-6z M192,240l6,0 0,6 -6,0 0,-6z M198,240l6,0 0,6 -6,0 0,-6z M222,240l6,0 0,6 -6,0 0,-6z M240,240l6,0 0,6 -6,0 0,-6z M246,240l6,0 0,6 -6,0 0,-6z M252,240l6,0 0,6 -6,0 0,-6z M258,240l6,0 0,6 -6,0 0,-6z M264,240l6,0 0,6 -6,0 0,-6z M276,240l6,0 0,6 -6,0 0,-6z M48,246l6,0 0,6 -6,0 0,-6z M54,246l6,0 0,6 -6,0 0,-6z M60,246l6,0 0,6 -6,0 0,-6z M78,246l6,0 0,6 -6,0 0,-6z M90,246l6,0 0,6 -6,0 0,-6z M96,246l6,0 0,6 -6,0 0,-6z M132,246l6,0 0,6 -6,0 0,-6z M156,246l6,0 0,6 -6,0 0,-6z M162,246l6,0 0,6 -6,0 0,-6z M174,246l6,0 0,6 -6,0 0,-6z M186,246l6,0 0,6 -6,0 0,-6z M198,246l6,0 0,6 -6,0 0,-6z M204,246l6,0 0,6 -6,0 0,-6z M210,246l6,0 0,6 -6,0 0,-6z M216,246l6,0 0,6 -6,0 0,-6z M240,246l6,0 0,6 -6,0 0,-6z M264,246l6,0 0,6 -6,0 0,-6z M276,246l6,0 0,6 -6,0 0,-6z M0,252l6,0 0,6 -6,0 0,-6z M6,252l6,0 0,6 -6,0 0,-6z M12,252l6,0 0,6 -6,0 0,-6z M18,252l6,0 0,6 -6,0 0,-6z M24,252l6,0 0,6 -6,0 0,-6z M30,252l6,0 0,6 -6,0 0,-6z M36,252l6,0 0,6 -6,0 0,-6z M48,252l6,0 0,6 -6,0 0,-6z M72,252l6,0 0,6 -6,0 0,-6z M84,252l6,0 0,6 -6,0 0,-6z M90,252l6,0 0,6 -6,0 0,-6z M108,252l6,0 0,6 -6,0 0,-6z M114,252l6,0 0,6 -6,0 0,-6z M120,252l6,0 0,6 -6,0 0,-6z M132,252l6,0 0,6 -6,0 0,-6z M144,252l6,0 0,6 -6,0 0,-6z M156,252l6,0 0,6 -6,0 0,-6z M168,252l6,0 0,6 -6,0 0,-6z M186,252l6,0 0,6 -6,0 0,-6z M204,252l6,0 0,6 -6,0 0,-6z M216,252l6,0 0,6 -6,0 0,-6z M228,252l6,0 0,6 -6,0 0,-6z M240,252l6,0 0,6 -6,0 0,-6z M252,252l6,0 0,6 -6,0 0,-6z M264,252l6,0 0,6 -6,0 0,-6z M270,252l6,0 0,6 -6,0 0,-6z M276,252l6,0 0,6 -6,0 0,-6z M282,252l6,0 0,6 -6,0 0,-6z M288,252l6,0 0,6 -6,0 0,-6z M0,258l6,0 0,6 -6,0 0,-6z M36,258l6,0 0,6 -6,0 0,-6z M48,258l6,0 0,6 -6,0 0,-6z M60,258l6,0 0,6 -6,0 0,-6z M72,258l6,0 0,6 -6,0 0,-6z M84,258l6,0 0,6 -6,0 0,-6z M90,258l6,0 0,6 -6,0 0,-6z M102,258l6,0 0,6 -6,0 0,-6z M120,258l6,0 0,6 -6,0 0,-6z M132,258l6,0 0,6 -6,0 0,-6z M156,258l6,0 0,6 -6,0 0,-6z M162,258l6,0 0,6 -6,0 0,-6z M168,258l6,0 0,6 -6,0 0,-6z M174,258l6,0 0,6 -6,0 0,-6z M198,258l6,0 0,6 -6,0 0,-6z M216,258l6,0 0,6 -6,0 0,-6z M228,258l6,0 0,6 -6,0 0,-6z M240,258l6,0 0,6 -6,0 0,-6z M264,258l6,0 0,6 -6,0 0,-6z M270,258l6,0 0,6 -6,0 0,-6z M282,258l6,0 0,6 -6,0 0,-6z M288,258l6,0 0,6 -6,0 0,-6z M0,264l6,0 0,6 -6,0 0,-6z M12,264l6,0 0,6 -6,0 0,-6z M18,264l6,0 0,6 -6,0 0,-6z M24,264l6,0 0,6 -6,0 0,-6z M36,264l6,0 0,6 -6,0 0,-6z M54,264l6,0 0,6 -6,0 0,-6z M60,264l6,0 0,6 -6,0 0,-6z M72,264l6,0 0,6 -6,0 0,-6z M90,264l6,0 0,6 -6,0 0,-6z M96,264l6,0 0,6 -6,0 0,-6z M102,264l6,0 0,6 -6,0 0,-6z M108,264l6,0 0,6 -6,0 0,-6z M126,264l6,0 0,6 -6,0 0,-6z M132,264l6,0 0,6 -6,0 0,-6z M138,264l6,0 0,6 -6,0 0,-6z M144,264l6,0 0,6 -6,0 0,-6z M150,264l6,0 0,6 -6,0 0,-6z M156,264l6,0 0,6 -6,0 0,-6z M162,264l6,0 0,6 -6,0 0,-6z M168,264l6,0 0,6 -6,0 0,-6z M180,264l6,0 0,6 -6,0 0,-6z M210,264l6,0 0,6 -6,0 0,-6z M222,264l6,0 0,6 -6,0 0,-6z M234,264l6,0 0,6 -6,0 0,-6z M240,264l6,0 0,6 -6,0 0,-6z M246,264l6,0 0,6 -6,0 0,-6z M252,264l6,0 0,6 -6,0 0,-6z M258,264l6,0 0,6 -6,0 0,-6z M264,264l6,0 0,6 -6,0 0,-6z M270,264l6,0 0,6 -6,0 0,-6z M276,264l6,0 0,6 -6,0 0,-6z M0,270l6,0 0,6 -6,0 0,-6z M12,270l6,0 0,6 -6,0 0,-6z M18,270l6,0 0,6 -6,0 0,-6z M24,270l6,0 0,6 -6,0 0,-6z M36,270l6,0 0,6 -6,0 0,-6z M48,270l6,0 0,6 -6,0 0,-6z M54,270l6,0 0,6 -6,0 0,-6z M72,270l6,0 0,6 -6,0 0,-6z M90,270l6,0 0,6 -6,0 0,-6z M126,270l6,0 0,6 -6,0 0,-6z M132,270l6,0 0,6 -6,0 0,-6z M138,270l6,0 0,6 -6,0 0,-6z M150,270l6,0 0,6 -6,0 0,-6z M156,270l6,0 0,6 -6,0 0,-6z M180,270l6,0 0,6 -6,0 0,-6z M186,270l6,0 0,6 -6,0 0,-6z M192,270l6,0 0,6 -6,0 0,-6z M216,270l6,0 0,6 -6,0 0,-6z M222,270l6,0 0,6 -6,0 0,-6z M234,270l6,0 0,6 -6,0 0,-6z M240,270l6,0 0,6 -6,0 0,-6z M252,270l6,0 0,6 -6,0 0,-6z M258,270l6,0 0,6 -6,0 0,-6z M264,270l6,0 0,6 -6,0 0,-6z M288,270l6,0 0,6 -6,0 0,-6z M0,276l6,0 0,6 -6,0 0,-6z M12,276l6,0 0,6 -6,0 0,-6z M18,276l6,0 0,6 -6,0 0,-6z M24,276l6,0 0,6 -6,0 0,-6z M36,276l6,0 0,6 -6,0 0,-6z M48,276l6,0 0,6 -6,0 0,-6z M54,276l6,0 0,6 -6,0 0,-6z M60,276l6,0 0,6 -6,0 0,-6z M78,276l6,0 0,6 -6,0 0,-6z M90,276l6,0 0,6 -6,0 0,-6z M96,276l6,0 0,6 -6,0 0,-6z M102,276l6,0 0,6 -6,0 0,-6z M108,276l6,0 0,6 -6,0 0,-6z M114,276l6,0 0,6 -6,0 0,-6z M120,276l6,0 0,6 -6,0 0,-6z M126,276l6,0 0,6 -6,0 0,-6z M132,276l6,0 0,6 -6,0 0,-6z M162,276l6,0 0,6 -6,0 0,-6z M180,276l6,0 0,6 -6,0 0,-6z M186,276l6,0 0,6 -6,0 0,-6z M204,276l6,0 0,6 -6,0 0,-6z M228,276l6,0 0,6 -6,0 0,-6z M234,276l6,0 0,6 -6,0 0,-6z M252,276l6,0 0,6 -6,0 0,-6z M258,276l6,0 0,6 -6,0 0,-6z M264,276l6,0 0,6 -6,0 0,-6z M282,276l6,0 0,6 -6,0 0,-6z M288,276l6,0 0,6 -6,0 0,-6z M0,282l6,0 0,6 -6,0 0,-6z M36,282l6,0 0,6 -6,0 0,-6z M54,282l6,0 0,6 -6,0 0,-6z M60,282l6,0 0,6 -6,0 0,-6z M66,282l6,0 0,6 -6,0 0,-6z M78,282l6,0 0,6 -6,0 0,-6z M84,282l6,0 0,6 -6,0 0,-6z M90,282l6,0 0,6 -6,0 0,-6z M96,282l6,0 0,6 -6,0 0,-6z M102,282l6,0 0,6 -6,0 0,-6z M114,282l6,0 0,6 -6,0 0,-6z M132,282l6,0 0,6 -6,0 0,-6z M138,282l6,0 0,6 -6,0 0,-6z M156,282l6,0 0,6 -6,0 0,-6z M162,282l6,0 0,6 -6,0 0,-6z M168,282l6,0 0,6 -6,0 0,-6z M186,282l6,0 0,6 -6,0 0,-6z M192,282l6,0 0,6 -6,0 0,-6z M198,282l6,0 0,6 -6,0 0,-6z M216,282l6,0 0,6 -6,0 0,-6z M234,282l6,0 0,6 -6,0 0,-6z M246,282l6,0 0,6 -6,0 0,-6z M276,282l6,0 0,6 -6,0 0,-6z M0,288l6,0 0,6 -6,0 0,-6z M6,288l6,0 0,6 -6,0 0,-6z M12,288l6,0 0,6 -6,0 0,-6z M18,288l6,0 0,6 -6,0 0,-6z M24,288l6,0 0,6 -6,0 0,-6z M30,288l6,0 0,6 -6,0 0,-6z M36,288l6,0 0,6 -6,0 0,-6z M48,288l6,0 0,6 -6,0 0,-6z M54,288l6,0 0,6 -6,0 0,-6z M66,288l6,0 0,6 -6,0 0,-6z M84,288l6,0 0,6 -6,0 0,-6z M96,288l6,0 0,6 -6,0 0,-6z M102,288l6,0 0,6 -6,0 0,-6z M120,288l6,0 0,6 -6,0 0,-6z M138,288l6,0 0,6 -6,0 0,-6z M144,288l6,0 0,6 -6,0 0,-6z M162,288l6,0 0,6 -6,0 0,-6z M174,288l6,0 0,6 -6,0 0,-6z M180,288l6,0 0,6 -6,0 0,-6z M186,288l6,0 0,6 -6,0 0,-6z M204,288l6,0 0,6 -6,0 0,-6z M216,288l6,0 0,6 -6,0 0,-6z M228,288l6,0 0,6 -6,0 0,-6z M252,288l6,0 0,6 -6,0 0,-6z M270,288l6,0 0,6 -6,0 0,-6z M276,288l6,0 0,6 -6,0 0,-6z M282,288l6,0 0,6 -6,0 0,-6z M288,288l6,0 0,6 -6,0 0,-6z " stroke="transparent" fill="black"/></svg>